<svg width="286" height="128" viewBox="0 0 286 128" fill="none" xmlns="http://www.w3.org/2000/svg">
<rect width="286" height="128" rx="10" fill="#141820"/>
<mask id="mask0_473_1834" style="mask-type:alpha" maskUnits="userSpaceOnUse" x="0" y="0" width="286" height="128">
<rect width="286" height="128" rx="10" fill="#141820"/>
</mask>
<g mask="url(#mask0_473_1834)">
<path d="M170.41 8C156.417 8.01456 142.651 11.5995 130.372 18.4269C118.093 25.2543 107.693 35.106 100.123 47.0807C89.4754 64.0714 85.0956 84.354 87.7622 104.321C90.4288 124.289 99.9688 142.647 114.686 156.13C129.403 169.614 148.342 177.349 168.137 177.961C187.931 178.572 207.297 172.02 222.791 159.47C236.276 148.425 246.062 133.397 250.802 116.457C255.542 99.516 255.002 81.4965 249.256 64.8813C243.51 48.2661 232.841 33.8731 218.72 23.6857C204.599 13.4983 187.72 8.01802 170.41 8ZM187.145 27.2423C198.708 30.2878 209.259 36.4257 217.704 45.0192C226.15 53.6128 232.182 64.3491 235.175 76.1145C221.184 76.5154 207.528 80.5609 195.513 87.8642C189.479 80.8994 182.749 74.5931 175.431 69.0476C182.804 56.3694 186.838 41.9706 187.145 27.2423ZM170.41 25.0286C170.383 37.2469 167.085 49.2267 160.871 59.6819C159.616 59.0007 158.444 58.2344 157.189 57.6384C146.415 51.8537 134.894 47.6404 122.966 45.1224C129.183 38.7581 136.576 33.7067 144.718 30.2583C152.86 26.81 161.591 25.0327 170.41 25.0286ZM111.837 60.4481C124.961 62.3032 137.671 66.4511 149.407 72.7088L150.495 73.3899C144.319 79.6683 136.986 84.645 128.917 88.0346C120.847 91.4242 112.2 93.1602 103.47 93.1431C103.516 81.7027 106.394 70.4585 111.837 60.4481ZM153.675 159.044C142.112 155.998 131.561 149.86 123.116 141.267C114.67 132.673 108.638 121.937 105.645 110.172C116.821 109.919 127.832 107.368 138.013 102.671C148.194 97.9734 157.336 91.2281 164.887 82.8408C170.936 87.3908 176.541 92.5231 181.623 98.1665C173.149 105.854 166.302 115.216 161.497 125.681C156.693 136.147 154.031 147.498 153.675 159.044ZM170.41 161.258C170.428 151.904 172.339 142.654 176.025 134.084C179.71 125.515 185.091 117.81 191.831 111.449C192.333 112.13 192.835 112.726 193.253 113.407C200.265 124.333 205.467 136.356 208.65 148.997C197.451 156.998 184.094 161.281 170.41 161.258ZM222.373 135.715C218.739 124.45 213.676 113.717 207.311 103.786L205.554 101.657C215.283 96.15 226.217 93.222 237.351 93.1431C237.268 108.655 231.984 123.674 222.373 135.715Z" fill="#EAEAEA" fill-opacity="0.1"/>
</g>
</svg>
