<svg width="9" height="11" viewBox="0 0 9 11" fill="none" xmlns="http://www.w3.org/2000/svg">
<path d="M6.86716 5.92791C6.80101 5.90159 6.73032 5.88856 6.65913 5.88956C6.58794 5.89056 6.51765 5.90557 6.45226 5.93374C6.38687 5.96191 6.32767 6.00268 6.27804 6.05372C6.22841 6.10477 6.18932 6.16509 6.163 6.23124C6.13668 6.2974 6.12365 6.36809 6.12465 6.43928C6.12565 6.51047 6.14066 6.58076 6.16883 6.64615C6.19699 6.71154 6.23776 6.77074 6.28881 6.82037C6.33986 6.87 6.40018 6.90909 6.46633 6.93541C7.25716 7.24958 7.75008 7.73708 7.75008 8.20833C7.75008 8.97749 6.41758 9.83333 4.50008 9.83333C2.58258 9.83333 1.25008 8.97749 1.25008 8.20833C1.25008 7.73708 1.743 7.24958 2.53383 6.93541C2.66743 6.88226 2.77445 6.77821 2.83134 6.64615C2.88822 6.51409 2.89032 6.36485 2.83716 6.23124C2.78401 6.09764 2.67996 5.99063 2.5479 5.93374C2.41585 5.87685 2.2666 5.87476 2.133 5.92791C0.903415 6.41541 0.166748 7.26583 0.166748 8.20833C0.166748 9.72499 2.068 10.9167 4.50008 10.9167C6.93216 10.9167 8.83341 9.72499 8.83341 8.20833C8.83341 7.26583 8.09675 6.41541 6.86716 5.92791ZM3.95841 4.34083V8.20833C3.95841 8.35199 4.01548 8.48976 4.11706 8.59134C4.21865 8.69293 4.35642 8.74999 4.50008 8.74999C4.64374 8.74999 4.78152 8.69293 4.8831 8.59134C4.98468 8.48976 5.04175 8.35199 5.04175 8.20833V4.34083C5.55235 4.20899 5.99735 3.89545 6.29332 3.45899C6.5893 3.02253 6.71593 2.4931 6.64948 1.96995C6.58303 1.4468 6.32806 0.965846 5.93237 0.617235C5.53668 0.268625 5.02743 0.0762939 4.50008 0.0762939C3.97273 0.0762939 3.46348 0.268625 3.06779 0.617235C2.6721 0.965846 2.41713 1.4468 2.35068 1.96995C2.28424 2.4931 2.41087 3.02253 2.70684 3.45899C3.00281 3.89545 3.44781 4.20899 3.95841 4.34083ZM4.50008 1.16666C4.71434 1.16666 4.9238 1.2302 5.10195 1.34923C5.2801 1.46827 5.41896 1.63747 5.50095 1.83542C5.58295 2.03337 5.6044 2.25119 5.5626 2.46134C5.5208 2.67149 5.41762 2.86452 5.26611 3.01603C5.11461 3.16753 4.92158 3.27071 4.71143 3.31251C4.50128 3.35431 4.28346 3.33286 4.08551 3.25086C3.88755 3.16887 3.71836 3.03001 3.59932 2.85186C3.48028 2.67371 3.41675 2.46426 3.41675 2.24999C3.41675 1.96268 3.53088 1.68713 3.73405 1.48396C3.93721 1.2808 4.21276 1.16666 4.50008 1.16666Z" fill="white"/>
</svg>
