<svg width="22" height="18" viewBox="0 0 22 18" fill="none" xmlns="http://www.w3.org/2000/svg">
<path d="M17.4199 5.2199C16.8089 3.8159 15.7544 2.65097 14.418 1.90362C13.0815 1.15627 11.5369 0.867727 10.0209 1.0822C8.50477 1.29668 7.10082 2.00235 6.02415 3.09107C4.94747 4.17979 4.25748 5.59151 4.05989 7.10989C3.10648 7.33822 2.27011 7.90873 1.70963 8.71308C1.14914 9.51744 0.903574 10.4996 1.01955 11.4731C1.13553 12.4466 1.60498 13.3436 2.33876 13.9938C3.07253 14.6439 4.01952 15.002 4.99989 14.9999C5.26511 14.9999 5.51946 14.8945 5.707 14.707C5.89453 14.5195 5.99989 14.2651 5.99989 13.9999C5.99989 13.7347 5.89453 13.4803 5.707 13.2928C5.51946 13.1053 5.26511 12.9999 4.99989 12.9999C4.46946 12.9999 3.96075 12.7892 3.58568 12.4141C3.2106 12.039 2.99989 11.5303 2.99989 10.9999C2.99989 10.4695 3.2106 9.96075 3.58568 9.58568C3.96075 9.21061 4.46946 8.9999 4.99989 8.9999C5.26511 8.9999 5.51946 8.89454 5.707 8.707C5.89453 8.51947 5.99989 8.26511 5.99989 7.9999C6.00244 6.81717 6.42418 5.67365 7.19016 4.77248C7.95614 3.87131 9.01678 3.27085 10.1836 3.07777C11.3505 2.88469 12.548 3.1115 13.5635 3.7179C14.5789 4.32431 15.3465 5.27104 15.7299 6.3899C15.7871 6.56174 15.8898 6.71483 16.0272 6.83283C16.1646 6.95083 16.3314 7.02931 16.5099 7.0599C17.176 7.18577 17.7798 7.5335 18.2229 8.04643C18.6661 8.55936 18.9225 9.20725 18.9503 9.88454C18.9781 10.5618 18.7758 11.2286 18.3762 11.7761C17.9766 12.3237 17.4034 12.7198 16.7499 12.8999C16.4926 12.9662 16.2722 13.132 16.1372 13.3608C16.0022 13.5896 15.9636 13.8626 16.0299 14.1199C16.0962 14.3772 16.262 14.5975 16.4908 14.7326C16.7196 14.8676 16.9926 14.9062 17.2499 14.8399C18.3023 14.5618 19.2352 13.9479 19.9069 13.0914C20.5786 12.2348 20.9525 11.1825 20.9717 10.0942C20.991 9.00583 20.6545 7.94094 20.0135 7.06122C19.3724 6.18149 18.4618 5.53499 17.4199 5.2199ZM11.7099 7.2899C11.6148 7.19885 11.5026 7.12749 11.3799 7.0799C11.1364 6.97988 10.8634 6.97988 10.6199 7.0799C10.4971 7.12749 10.385 7.19885 10.2899 7.2899L7.28989 10.2899C7.10159 10.4782 6.9958 10.7336 6.9958 10.9999C6.9958 11.2662 7.10159 11.5216 7.28989 11.7099C7.47819 11.8982 7.73359 12.004 7.99989 12.004C8.26619 12.004 8.52159 11.8982 8.70989 11.7099L9.99989 10.4099V15.9999C9.99989 16.2651 10.1052 16.5195 10.2928 16.707C10.4803 16.8945 10.7347 16.9999 10.9999 16.9999C11.2651 16.9999 11.5195 16.8945 11.707 16.707C11.8945 16.5195 11.9999 16.2651 11.9999 15.9999V10.4099L13.2899 11.7099C13.3829 11.8036 13.4935 11.878 13.6153 11.9288C13.7372 11.9796 13.8679 12.0057 13.9999 12.0057C14.1319 12.0057 14.2626 11.9796 14.3845 11.9288C14.5063 11.878 14.6169 11.8036 14.7099 11.7099C14.8036 11.6169 14.878 11.5063 14.9288 11.3845C14.9796 11.2626 15.0057 11.1319 15.0057 10.9999C15.0057 10.8679 14.9796 10.7372 14.9288 10.6153C14.878 10.4935 14.8036 10.3829 14.7099 10.2899L11.7099 7.2899Z" fill="white" stroke="#13373B"/>
</svg>
